<svg xmlns="http://www.w3.org/2000/svg" xmlns:xlink="http://www.w3.org/1999/xlink" id="Uploaded to svgrepo.com" width="32" height="32" x="0" style="enable-background:new 0 0 32 32" y="0" version="1.1" viewBox="0 0 32 32" xml:space="preserve"><style type="text/css">.avocado_een{fill:#231f20}.avocado_vijf{fill:#dbd2c1}.avocado_zes{fill:#fffaee}</style><g><polygon points="17.207 26.5 10.5 26.5 10.5 17.793 9.207 16.5 2.5 16.5 2.5 2.5 21.5 2.5 21.5 12.5 29.5 12.5 29.5 26.5 22.793 26.5 20 29.293" class="avocado_zes"/><g><g><path d="M24,17v1h-8l-4,4l-1.5-1.5v-2.714l1.5,1.5l2.786-2.786H21.5v-4H23V17H24z M16,20h8v-1h-8V20z M16,22h8v-1h-8V22z M16,7H8v1h8V7z M16,9H8v1h8V9z M16,11H8v1h8V11z" class="avocado_vijf"/></g></g><path d="M22,12V2H2v15h7l1,1v9h7l3,3l3-3h7V12H22z M9.414,16H3V3h18v13h-6.414L12,18.586L9.414,16z M29,26h-6.414L20,28.586L17.414,26H11v-7l1,1l3-3h7v-4h7V26z" class="avocado_een"/></g></svg>